<svg width="80" height="80" viewBox="0 0 80 80" fill="none" xmlns="http://www.w3.org/2000/svg">
<circle cx="40" cy="40" r="40" fill="white"/>
<path fill-rule="evenodd" clip-rule="evenodd" d="M80 40C80 41.2808 79.9398 42.5475 79.8221 43.7975C77.5218 44.528 75.4763 45.7379 73.296 47.0274L73.2959 47.0275L73.2958 47.0276C72.3704 47.5749 71.4208 48.1366 70.4171 48.6821C69.1086 49.3932 66.2836 50.3361 62.8745 50.3751C59.4988 50.4138 55.6356 49.5668 52.1244 46.8191C47.77 43.4114 43.3298 42.5538 39.3314 43.1527C35.385 43.7438 31.9693 45.7349 29.5157 47.8684C27.4297 49.6824 24.8625 50.8986 21.8872 51.0649C18.9119 51.2313 15.39 50.3552 11.386 47.7441C6.69063 44.6821 3.41236 43.4333 0.906313 43.0779C0.630842 43.0389 0.365585 43.011 0.110273 42.9928C0.0371905 42.0047 0 41.0067 0 40C0 38.1578 0.124534 36.3447 0.365642 34.5686C0.405078 34.5737 0.444901 34.5791 0.48512 34.5848C2.38733 34.8546 5.2424 35.8558 9.7473 38.7936C14.1764 41.682 18.3214 42.8056 22.0546 42.5969C25.7878 42.3882 28.9707 40.8546 31.4843 38.6689C33.6303 36.8028 36.5363 35.1414 39.7758 34.6562C42.9633 34.1788 46.5733 34.821 50.2756 37.7183C54.431 40.9702 59.0012 41.9563 62.9088 41.9116C66.7831 41.8672 70.0914 40.8101 71.8496 39.8546C73.0306 39.2127 74.087 38.5939 75.0662 38.0203L75.0663 38.0203C76.7813 37.0157 78.2592 36.1499 79.7544 35.5425C79.9167 37.006 80 38.4933 80 40ZM79.2998 32.5095C75.7931 13.9984 59.5313 0 40 0C20.786 0 4.73616 13.5472 0.881134 31.611C0.889517 31.6122 0.897911 31.6133 0.906313 31.6145C3.41236 31.9699 6.69063 33.2187 11.386 36.2807C15.39 38.8918 18.9119 39.7679 21.8872 39.6016C24.8625 39.4352 27.4297 38.219 29.5157 36.4051C31.9693 34.2715 35.385 32.2804 39.3314 31.6893C43.3298 31.0904 47.77 31.9481 52.1244 35.3557C55.6356 38.1034 59.4988 38.9504 62.8745 38.9118C66.2836 38.8727 69.1086 37.9298 70.4171 37.2187C71.4208 36.6732 72.3704 36.1115 73.2958 35.5642L73.2959 35.5641C75.3099 34.3729 77.2088 33.2497 79.2998 32.5095ZM75.0663 49.4837C76.6299 48.5677 77.9965 47.7673 79.3587 47.1727C78.8301 50.0922 77.9847 52.9014 76.8593 55.5634C75.6688 56.1606 74.503 56.8502 73.2959 57.5641L73.2951 57.5646C72.37 58.1118 71.4206 58.6733 70.4171 59.2187C69.1086 59.9298 66.2836 60.8727 62.8745 60.9118C59.4988 60.9504 55.6356 60.1034 52.1244 57.3557C47.77 53.9481 43.3298 53.0904 39.3314 53.6893C35.385 54.2804 31.9693 56.2715 29.5157 58.4051C27.4297 60.219 24.8625 61.4352 21.8872 61.6016C18.9119 61.7679 15.39 60.8918 11.386 58.2807C7.62309 55.8268 4.77031 54.5374 2.49575 53.9392C1.55823 51.4177 0.867717 48.7761 0.453613 46.0438L0.48512 46.0482C2.38733 46.3179 5.2424 47.3192 9.7473 50.257C14.1764 53.1453 18.3214 54.269 22.0546 54.0603C25.7878 53.8516 28.9707 52.3179 31.4843 50.1323C33.6303 48.2662 36.5363 46.6048 39.7758 46.1196C42.9633 45.6422 46.5733 46.2844 50.2756 49.1816C54.431 52.4336 59.0012 53.4197 62.9088 53.3749C66.7831 53.3306 70.0914 52.2735 71.8496 51.3179C73.03 50.6764 74.0858 50.058 75.0645 49.4847L75.0649 49.4845L75.0653 49.4842L75.0662 49.4837L75.0663 49.4837ZM4.10662 57.6743C6.17386 61.8645 8.95324 65.6404 12.2867 68.844C15.9199 71.0185 19.1371 71.7554 21.8872 71.6016C24.8625 71.4353 27.4297 70.2191 29.5158 68.4051C31.9693 66.2716 35.385 64.2805 39.3314 63.6894C43.3298 63.0905 47.77 63.9481 52.1245 67.3557C55.6357 70.1035 59.4989 70.9505 62.8745 70.9118C63.8632 70.9005 64.8027 70.8132 65.6704 70.6775C69.1313 67.7784 72.0943 64.3045 74.4127 60.4026C73.6193 60.8655 72.7725 61.353 71.8496 61.8546C70.0914 62.8101 66.7831 63.8672 62.9088 63.9116C59.0012 63.9563 54.431 62.9702 50.2756 59.7183C46.5733 56.821 42.9633 56.1788 39.7758 56.6562C36.5363 57.1414 33.6303 58.8028 31.4843 60.6689C28.9707 62.8546 25.7878 64.3882 22.0546 64.5969C18.3214 64.8056 14.1764 63.682 9.7473 60.7936C7.47818 59.3138 5.62764 58.3254 4.10662 57.6743ZM40 80C32.6559 80 25.7741 78.0208 19.8589 74.5667C20.6054 74.628 21.3376 74.637 22.0547 74.597C25.7878 74.3882 28.9708 72.8546 31.4843 70.6689C33.6303 68.8028 36.5363 67.1415 39.7758 66.6563C42.9633 66.1789 46.5733 66.8211 50.2756 69.7183C53.8689 72.5303 57.7723 73.6481 61.2893 73.8701C55.1241 77.7534 47.8244 80 40 80Z" fill="#52ACDE"/>
</svg>
