<svg width="80" height="80" viewBox="0 0 80 80" fill="none" xmlns="http://www.w3.org/2000/svg">
<circle cx="40" cy="40" r="38.5" fill="#8DCA40" stroke="#8DCA40" stroke-width="3"/>
<path d="M66.3036 44.3014C64.4611 45.6813 62.8179 46.1037 61.3148 46.1287C60.1168 46.1487 58.9783 45.9214 57.796 45.6288C57.8849 43.5572 58.5514 40.1124 61.508 37.8981C64.4852 35.6684 67.9906 35.9988 69.9922 36.5071C69.9036 38.9011 69.3757 42.0006 66.3036 44.3014Z" stroke="white" stroke-width="3"/>
<path d="M60.5 18.5C60.5 20.802 59.853 22.3704 58.972 23.5885C58.2699 24.5594 57.4054 25.3344 56.4625 26.1053C54.8577 24.7923 52.5 22.1938 52.5 18.5C52.5 14.7803 54.8658 12.1727 56.4726 10.8753C58.3356 12.3813 60.5 14.6619 60.5 18.5Z" stroke="white" stroke-width="3"/>
<path d="M28.4025 25.3368C30.1471 26.8385 30.9137 28.3521 31.2622 29.8144C31.54 30.98 31.5634 32.1408 31.5325 33.3583C29.4905 33.718 25.983 33.8098 23.1835 31.4C20.3644 28.9734 19.9314 25.4792 19.9963 23.4151C22.3531 22.9855 25.4935 22.8329 28.4025 25.3368Z" stroke="white" stroke-width="3"/>
<path d="M66.4229 63.423C64.8654 65.1181 63.3278 65.8352 61.8549 66.1361C60.6809 66.3759 59.52 66.3617 58.3042 66.2913C58.0108 64.2387 58.0329 60.7301 60.5322 58.0102C63.0489 55.2712 66.5554 54.9518 68.6163 55.0837C68.9692 57.4531 69.0199 60.5969 66.4229 63.423Z" stroke="white" stroke-width="3"/>
<mask id="path-6-inside-1" fill="white">
<path fill-rule="evenodd" clip-rule="evenodd" d="M55 77.0924V26H58V75.7308C57.0223 76.2243 56.0217 76.6789 55 77.0924Z"/>
</mask>
<path fill-rule="evenodd" clip-rule="evenodd" d="M55 77.0924V26H58V75.7308C57.0223 76.2243 56.0217 76.6789 55 77.0924Z" fill="white"/>
<path d="M55 77.0924H54V78.576L55.3752 78.0194L55 77.0924ZM55 26V25H54V26H55ZM58 26H59V25H58V26ZM58 75.7308L58.4506 76.6236L59 76.3462V75.7308H58ZM56 77.0924V26H54V77.0924H56ZM55 27H58V25H55V27ZM57 26V75.7308H59V26H57ZM57.5494 74.8381C56.5963 75.3192 55.6207 75.7623 54.6248 76.1655L55.3752 78.0194C56.4226 77.5954 57.4484 77.1294 58.4506 76.6236L57.5494 74.8381Z" fill="white" mask="url(#path-6-inside-1)"/>
<path d="M56.0049 55.5658C54.6219 48.6928 46.8771 33.6347 28.8058 34.0096C10.7346 34.3844 9.23089 49.8796 12.2098 56.4404C13.1318 58.4711 16.3588 64.1882 23.7348 64.938C31.1108 65.6878 34.7988 59.7833 33.8768 54.1599C32.9548 48.5366 25.8535 45.4655 22.8128 50.411C20.5078 54.1599 23.4275 57.128 25.5788 57.4404" stroke="white" stroke-width="3"/>
<path d="M45.8801 51.8779C43.8552 52.9728 42.1678 53.1497 40.6773 52.9542C39.4893 52.7983 38.3964 52.4065 37.2698 51.9437C37.6614 49.9076 38.8257 46.5977 42.0749 44.8408C45.3469 43.0715 48.766 43.9123 50.6715 44.7086C50.2329 47.0636 49.2563 50.0523 45.8801 51.8779Z" stroke="white" stroke-width="3"/>
</svg>
