<svg width="80" height="80" viewBox="0 0 80 80" fill="none" xmlns="http://www.w3.org/2000/svg">
<circle cx="40" cy="40" r="38.5" fill="white" stroke="#E98EF8" stroke-width="3"/>
<path d="M26.8937 18.1165C23.9929 24.6168 23.9929 49.1183 56.4912 59.1189" stroke="#E98EF8" stroke-width="3"/>
<path d="M30.1065 40.1177C28.5986 44.0813 28.5986 59.0212 45.4917 65.1192" stroke="#E98EF8" stroke-width="3"/>
<path d="M31.2227 52.6184C28.4926 58.1187 30.6573 66.229 36.9922 70.6195" stroke="#E98EF8" stroke-width="3"/>
<path d="M30.3188 59.1429C29.112 61.2036 22.4929 67.6193 26.4927 76.12" stroke="#E98EF8" stroke-width="3"/>
<path d="M53.265 28.1392C48.2654 24.639 40.7659 28.1392 50.7652 36.1397C61.0798 44.3925 73.2642 42.6401 76.2639 39.1399C79.7638 33.6395 76.0086 22.8788 55.9912 14.6381C37.7184 7.11566 29.2075 13.1156 27.4927 16.1163C25.778 19.117 25.9928 28.1393 34.2661 36.1397C45.9684 47.456 59.491 52.1184 78.49 50.6183" stroke="#E98EF8" stroke-width="3"/>
</svg>
