<svg width="80" height="80" viewBox="0 0 80 80" fill="none" xmlns="http://www.w3.org/2000/svg">
<circle cx="40" cy="40" r="38.5" fill="#AD2323" stroke="#AD2323" stroke-width="3"/>
<path d="M35.0387 56.6746C32.062 53.4498 31.1194 43.5273 31.3178 40.5505" stroke="white" stroke-width="3"/>
<path d="M8 53.4496C13.0439 52.1266 21.4264 49.4807 23.1318 46.7521C24.3721 44.7676 26.1085 35.3411 29.0853 33.1085C31.4667 31.3225 37.0233 30.2145 39.5039 29.8837M39.5039 29.8837C47.6899 27.4032 48.4341 15 39.5039 15C31.4276 15 30.3256 27.6511 39.5039 29.8837Z" stroke="white" stroke-width="3"/>
<path d="M39.752 29.6357C42.0672 30.7934 42.7083 29.9598 48.4342 31.8684C56.6202 34.5971 49.9225 40.5506 59.1008 47.2482L64.5582 49.2326L72.0001 51.9614C61.3334 51.9614 53.3954 54.442 48.4342 40.7986C48.0734 39.8064 48.6822 58.2607 35.2869 56.9227M35.2869 56.9227C22.6887 55.6642 21.8915 50.7211 17.1783 54.442C12.4652 58.163 21.3547 72.346 40.4962 62.6281C56.6202 54.442 59.9233 53.5956 63.566 57.6668C67.783 62.38 53.3954 68.5816 41.7365 62.6281L39.752 61.3878L38.2636 60.1475L35.2869 56.9227Z" stroke="white" stroke-width="3"/>
</svg>
